<?xml version="1.0" encoding="UTF-8"?>
<svg id="Livello_1" xmlns="http://www.w3.org/2000/svg" version="1.1" viewBox="0 0 2000 155">
  <!-- Generator: Adobe Illustrator 29.3.1, SVG Export Plug-In . SVG Version: 2.1.0 Build 151)  -->
  <defs>
    <style>
      .st0 {
        fill: #255fe8;
      }
    </style>
  </defs>
  <path d="M736.5,2.1c-44.7,4.1-73.8,32.7-73.8,72.4s14.5,53.2,41.8,66.6c5.5,2.6,13.8,5.8,18.5,6.9,18,4.2,40.6,3.6,57.5-1.7,33.6-10.5,52.7-38.7,49.1-72.6l-.8-6.7h-77.8v24h50.8l-1,3.8c-3.7,13.5-14.9,23.3-31.9,27.8-4.2,1.1-10.3,1.7-17.9,1.7-19.8,0-34.1-5.5-45.3-17.2-6.9-7.2-10.4-14.6-11.9-25.1-3.8-25.5,12.3-46.7,39.7-52.5,8.2-1.7,25.2-1.9,34.5-.4,5.6.9,18.7,4.8,24.1,7.3,1.3.6,2.8-1.1,7.1-8.1,8.9-14.3,8.6-12.9,2.9-15.8C785.8,4.3,759.1,0,736.5,2.1Z"/>
  <path d="M923.5,2.1c-15.1,1.9-31.5,8.6-42.7,17.4-11.6,9.1-21,24.6-24.3,39.9-2.6,11.7-1.7,29.3,1.9,40.1,6.8,19.9,19,33.6,38.2,42.6,13.6,6.5,23.2,8.4,41.9,8.3,14-.1,17.2-.4,25.7-2.7,26.9-7.2,45.5-24,53.8-48.7,2.8-8.2,3.9-28.8,2-38.2-4.2-22.1-18.2-40.1-38.5-49.8-18.3-8.8-36.5-11.5-58-8.9ZM954.5,29.5c25.8,6.6,40.5,27.9,36.7,53.5-1.5,10.2-5.1,17.8-12.6,25.7-10.1,10.8-23.3,15.8-41.6,15.6-28.1-.2-48.2-16.2-52.1-41.2-3.8-25.2,10.7-46.8,36.1-53.5,7.4-2,25.9-2,33.5-.1Z"/>
  <path d="M1110.2,2c-32.2,3.3-52.2,17.1-56.8,39.1-2.9,13.6.8,26.2,10.4,35.1,8.5,8,19.1,12.2,33.5,13.3,6.1.5,13.7,0,29.7-2,23.3-2.9,37.6-3,44-.3,14.8,6.4,13.7,25-1.9,31.7-10,4.3-17.6,5.4-35.6,5.5-25.5,0-41.9-3.6-63.1-14.1-5.2-2.5-9.6-4.4-9.7-4.2-1.6,1.9-14.7,22.7-14.7,23.2,0,1,11.3,6.5,21,10.2,38.7,15,89.6,15.1,118.2.4,20.1-10.4,30.3-28.8,26.9-48.4-2.9-16.7-13.1-26.9-32.1-32.1-8.7-2.4-30.6-2.4-50,0-26.5,3.3-37.9,2.1-43.5-4.5-7.3-8.8-2.3-18.7,12.1-24.1,5.4-2,7.7-2.2,26.4-2.2s31.3,1.3,50.2,7.8c7,2.4,10,3,10.6,2.2.5-.6,3.5-5.9,6.6-11.8l5.7-10.6-8.1-3.1c-22.5-8.7-56.7-13.5-79.8-11.1Z"/>
  <path class="st0" d="M1364.8,3.6c-22.6,4.1-41.8,15.7-52.7,31.9-20.5,30.8-14,74.6,14.4,96.2,26.7,20.4,72.2,24.7,109,10.4,4.4-1.7,9.7-4.1,11.7-5.4l3.8-2.2-6.1-10c-3.4-5.5-6.4-10.3-6.8-10.7s-4.3.8-8.7,2.7c-38.1,16.5-80.5,7.5-93.9-19.8-6.9-14.3-6.9-28.4,0-42.4,7.5-15.2,22.9-24.1,45.3-26.3,15.8-1.5,35.8,1.7,47.4,7.5l4.7,2.4,5.4-8.7c9-14.6,9.1-12.7-.5-17.2-8.9-4.2-20.1-7.4-31.3-9-9.9-1.4-32.6-1.1-41.7.6Z"/>
  <path class="st0" d="M1536,3.9c-24.4,5.3-42.6,18.6-52.5,38.3-6.1,12.3-7.8,20.9-7.3,36.6.4,10.1,1,14.3,3.1,20.7,9.8,29.7,35.4,47.9,72.2,51,8.8.7,24.5-.7,34-3.1,10-2.5,25.5-10.7,32.8-17.5,20.2-18.4,27.9-46.3,20.6-74.7-3-11.7-8.2-20.5-17.9-30.2s-19-15.2-33.5-19.6c-7.9-2.4-11-2.7-26-3-13.8-.3-18.6,0-25.5,1.5ZM1571.3,28.5c27.9,4.9,44.9,27.6,40.9,54.4-4.1,26.6-27.2,43.5-57.3,41.8-19.4-1.2-33.8-8.8-43-22.9-5.4-8.4-7.2-16.3-6.7-29,.3-9.7.6-11,4.1-18.1,6.5-13.2,19.1-22.7,33.7-25.6,3-.6,6.4-1.3,7.5-1.5,4.3-.8,13.4-.5,20.8.9Z"/>
  <path d="M22,75.9v73.1h29v-38.9l33.3-.3c36.7-.5,38.6-.7,52.5-7.4,19.6-9.4,29.6-30,26.4-54.6-2.8-22.2-16.2-36.2-40.7-42.3-6-1.5-13.5-1.8-53.7-2.2l-46.8-.5v73.1ZM116.1,31.3c11.1,4.2,16.4,12.4,16.4,25.2s-5.2,20.9-17.5,25.7c-5.1,2-7.6,2.2-34.7,2.6l-29.3.4V28.9l30.3.3c25.6.3,30.9.7,34.8,2.1Z"/>
  <path d="M196,76v73h126v-26h-96v-40l41.8-.2,41.7-.3v-24l-41.7-.3-41.8-.2v-29h94V3h-124v73Z"/>
  <path d="M355,76v73l57.3-.2,57.2-.3v-25l-42.2-.3-42.3-.2V3h-30v73Z"/>
  <path d="M542.4,14.7c-45.1,96-62.4,133-62.4,133.6s6.9.7,15.3.7h15.3l5.5-12.3,5.6-12.2,42.5-.3,42.5-.2,5.9,12.5,5.9,12.5h15.3c8.3,0,15.2-.3,15.2-.8s-15.7-33.1-34.9-72.7L579.3,3.5l-15.7-.3-15.7-.3-5.5,11.8ZM579.7,67.2c8.4,17.7,15.1,32.3,14.9,32.5-.1.2-14,.2-30.8.1l-30.5-.3,15-32.3c8.2-17.7,15.2-32.2,15.6-32.2.3.1,7.5,14.5,15.8,32.2Z"/>
  <path class="st0" d="M1675,76.4v72.6h29v-42h46l14,21,14,21h17.6c13.7,0,17.4-.3,16.8-1.3-.4-.6-7.4-11-15.6-22.9-8.1-12-14.8-22-14.8-22.2s2.6-1.6,5.8-3.2c6.9-3.3,18-14.1,21-20.4,3.3-7,5.2-15.7,5.2-24.2,0-25.4-12-40.9-37.5-48.4-5.3-1.5-11.9-1.8-53.7-2.1l-47.8-.4v72.5ZM1765.4,30.7c4.7,1.3,7.2,2.8,11.2,6.7,4.5,4.4,5.4,5.9,6.4,10.9,2.7,13.5-3.2,25.4-15.4,30.9-4.9,2.2-6.3,2.3-34.3,2.6l-29.3.3V29h27.7c23,0,28.7.3,33.7,1.7Z"/>
  <path class="st0" d="M1850,76.5v72.5h125v-26h-96v-41h84v-23h-84v-30h94V4h-123v72.5Z"/>
</svg>